PathFileType	4	(X/Y/Z)	TVC_32_Cal_03_0_static_RCNL2025.trc
DataRate	CameraRate	NumFrames	NumMarkers	Units	OrigDataRate	OrigDataStartFrame	OrigNumFrames
100	100	7	27	mm	100	148	197
Frame#	Time	R_Shoulder			L_Shoulder			C7			J_Notch			R_Elbow			L_Elbow			R_Wrist			L_Wrist			R_Asis			L_Asis			R_Psis			L_Psis			Sacral			Thoracic			Sternum			R_Thigh_Lateral			R_Knee_Lateral			R_Shank_Lateral			R_Ankle_Lateral			R_Heel			R_Toe			L_Thigh_Lateral			L_Knee_Lateral			L_Shank_Lateral			L_Ankle_Lateral			L_Heel			L_Toe		
		X1	Y1	Z1	X2	Y2	Z2	X3	Y3	Z3	X4	Y4	Z4	X5	Y5	Z5	X6	Y6	Z6	X7	Y7	Z7	X8	Y8	Z8	X9	Y9	Z9	X10	Y10	Z10	X11	Y11	Z11	X12	Y12	Z12	X13	Y13	Z13	X14	Y14	Z14	X15	Y15	Z15	X16	Y16	Z16	X17	Y17	Z17	X18	Y18	Z18	X19	Y19	Z19	X20	Y20	Z20	X21	Y21	Z21	X22	Y22	Z22	X23	Y23	Z23	X24	Y24	Z24	X25	Y25	Z25	X26	Y26	Z26	X27	Y27	Z27
148	1.47000000	-158.133835	1473.219238	-33.983509	-166.551163	1453.844727	-413.846283	-222.495865	1517.680420	-221.180084	-57.654713	1421.814087	-214.145309	-189.026413	1156.110840	134.707031	-173.552475	1120.416870	-514.619263	-108.814484	893.908661	100.447876	-85.197437	862.265625	-479.268188	-93.325989	1012.921814	-67.209320	-97.885338	1015.351135	-347.888275	-288.867371	1026.957031	-153.976532	-286.464783	1024.238892	-255.210037	-287.666077	1025.597961	-204.593285	-283.852356	1252.896240	-211.512405	-33.627415	1276.838135	-216.396942	-194.783218	638.581177	-2.196009	-178.666916	501.806061	-48.131214	-228.106461	302.923981	3.619140	-240.363846	82.250610	-60.939960	-293.871948	53.725899	-125.869949	-96.976059	41.645023	-55.848625	-163.577148	680.378113	-434.791382	-186.803864	503.207611	-398.285492	-205.843414	360.888367	-462.859161	-198.827438	76.554382	-425.216400	-265.677032	60.748775	-376.996887	-57.905998	40.906361	-404.457153
149	1.48000000	-158.284042	1473.263550	-34.004967	-166.507996	1453.752197	-413.747803	-222.495865	1517.676880	-221.181259	-57.673820	1421.862305	-214.137711	-189.032364	1156.104614	134.721100	-173.557739	1120.392334	-514.755310	-108.793629	893.857574	100.449333	-85.139072	862.270325	-479.216690	-93.341438	1012.836670	-67.218201	-97.947639	1015.379639	-347.949249	-288.878326	1027.068726	-153.932281	-286.433746	1024.266113	-255.242111	-287.656036	1025.667419	-204.587196	-283.855194	1252.898438	-211.515015	-33.613075	1276.921631	-216.568756	-194.838974	638.444153	-2.264006	-178.626740	501.792542	-48.158260	-228.165192	303.348816	4.232042	-240.364655	82.245636	-60.914028	-293.816833	53.770061	-125.910721	-96.937233	41.697029	-55.801655	-163.582245	680.375732	-434.857819	-186.765320	503.210693	-398.277283	-205.799179	360.878082	-462.860291	-198.821793	76.561005	-425.210541	-265.664703	60.816132	-376.875092	-57.941410	40.912487	-404.478943
150	1.49000000	-158.289307	1473.180542	-33.905632	-166.529236	1453.738037	-413.753937	-222.444122	1517.678223	-221.126099	-57.697060	1421.855103	-214.111389	-189.010223	1156.028687	134.678604	-173.560562	1120.415283	-514.604797	-108.919834	893.729095	100.496033	-85.080963	862.310638	-479.213913	-93.356270	1012.832886	-67.198166	-97.983978	1015.328369	-347.943298	-288.881042	1027.067017	-153.923248	-286.468658	1024.225830	-255.240356	-287.674850	1025.646423	-204.581802	-283.870026	1252.938232	-211.490768	-33.769077	1276.897339	-216.366119	-194.774063	638.502197	-2.128454	-178.620087	501.778778	-48.039875	-228.141464	303.379364	4.205094	-240.501816	82.239059	-60.896648	-293.841827	53.771172	-125.905968	-96.963356	41.614491	-55.864120	-163.493591	680.384521	-434.803009	-186.705307	503.158478	-398.274109	-205.846954	360.888062	-462.871735	-198.834229	76.553833	-425.183563	-265.647827	60.820160	-376.874115	-57.947205	40.909889	-404.484161
151	1.50000000	-158.265610	1473.179688	-33.889462	-166.370117	1453.816772	-413.842621	-222.438644	1517.684692	-221.124832	-57.649441	1421.693115	-214.284332	-188.996918	1156.055298	134.675980	-173.472061	1120.443848	-514.516479	-108.902580	893.770996	100.344048	-85.064621	862.312469	-479.150757	-93.477188	1012.875366	-67.045418	-97.866722	1015.368164	-347.928223	-288.873718	1026.931763	-153.940872	-286.397400	1024.193970	-255.247910	-287.635559	1025.562866	-204.594391	-283.871033	1252.954346	-211.468445	-33.744484	1276.677856	-216.306168	-194.773376	638.507019	-2.148608	-178.583710	501.784058	-48.062111	-228.111450	303.326324	4.224293	-240.364212	82.239540	-60.921074	-293.788269	53.745129	-125.946022	-96.958572	41.605644	-55.876492	-163.459442	680.465942	-434.843170	-186.625366	503.081451	-398.277954	-205.728912	360.868896	-462.816071	-198.830734	76.527985	-425.184265	-265.656555	60.794098	-376.921478	-57.906673	40.906345	-404.460175
152	1.51000000	-158.266830	1473.163696	-33.920940	-166.497742	1453.735962	-413.725861	-222.433456	1517.652954	-221.138336	-57.621471	1421.800293	-214.201218	-189.050201	1155.950684	134.686050	-173.529480	1120.382446	-514.526062	-108.936520	893.772522	100.323471	-85.114399	862.251526	-479.033707	-93.475914	1012.891541	-67.120514	-97.878311	1015.384827	-348.034363	-288.867035	1026.920898	-153.944794	-286.353241	1024.103760	-254.892593	-287.610138	1025.512329	-204.418694	-283.870148	1252.953979	-211.467514	-32.626102	1276.754028	-217.652512	-194.653778	638.553772	-2.084103	-178.527481	501.818054	-48.001080	-228.093033	303.362183	4.225074	-240.349152	82.234840	-60.938572	-293.766113	53.637032	-125.879211	-96.973671	41.651798	-55.845497	-163.403397	680.399841	-434.825195	-186.562775	503.140137	-398.273956	-205.686890	360.868469	-462.820129	-198.845169	76.586761	-425.184326	-265.604065	60.812637	-376.818237	-57.940590	40.932373	-404.482758
153	1.52000000	-158.132385	1472.878540	-33.940502	-166.553207	1453.729492	-413.690338	-222.429138	1517.676758	-221.127319	-57.656971	1421.706787	-214.158417	-189.141876	1155.969727	134.636688	-173.460175	1120.414673	-514.506470	-109.044018	893.688385	100.313030	-85.132244	862.257111	-479.009232	-93.334412	1012.836426	-67.111015	-97.877571	1015.397949	-348.084534	-288.844788	1027.008545	-153.956467	-286.353119	1024.198853	-254.721497	-287.598953	1025.603699	-204.338982	-283.871460	1252.924683	-211.488602	-32.258106	1276.872681	-217.907547	-194.483231	638.466309	-2.102326	-178.504074	501.843842	-48.022171	-228.057266	303.397125	4.183855	-240.511536	82.274002	-60.881630	-293.805267	53.723263	-125.905106	-96.960144	41.613010	-55.871162	-163.408066	680.402344	-434.791321	-186.591797	503.202728	-398.273529	-205.708679	360.889221	-462.812439	-198.791443	76.599159	-425.175537	-265.499084	60.900440	-377.021423	-57.848259	40.908440	-404.448059
154	1.53000000	-158.005325	1473.052612	-33.945202	-166.498749	1453.722168	-413.663452	-222.422318	1517.697998	-221.117569	-57.692760	1421.578369	-214.272354	-189.162857	1156.008789	134.666000	-173.529572	1120.346313	-514.418762	-109.088631	893.664703	100.267441	-85.082890	862.265717	-478.971329	-93.445030	1012.736328	-67.071175	-97.910522	1015.345642	-348.006348	-288.870361	1026.950562	-153.942978	-286.398041	1024.268555	-255.186050	-287.634201	1025.609558	-204.564514	-283.867279	1252.936279	-211.464981	-32.327686	1276.849976	-217.810150	-194.479507	638.499451	-1.992270	-178.443390	501.824768	-48.081829	-228.012085	303.255737	4.171387	-240.540222	82.303635	-60.896355	-293.800903	53.750023	-125.922455	-96.968842	41.646439	-55.850319	-163.408630	680.406860	-434.788666	-186.565567	503.195679	-398.257629	-205.703278	360.897736	-462.810516	-198.823013	76.581726	-425.199219	-265.575104	60.848965	-377.017578	-57.853848	40.913025	-404.421143
